<svg width="170" height="88" fill="none" xmlns="http://www.w3.org/2000/svg"><path d="M123.6 14.926C128.667 9.642 135 7 142.6 7c3.691 0 7.13.724 10.314 2.171 3.257 1.376 6.08 3.294 8.469 5.755 2.461 2.46 4.379 5.356 5.754 8.685 1.375 3.258 2.063 6.768 2.063 10.532 0 3.764-.688 7.31-2.063 10.64-1.303 3.257-3.148 6.116-5.537 8.577-2.389 2.461-5.211 4.415-8.469 5.863-3.257 1.375-6.767 2.063-10.531 2.063-3.836 0-7.383-.688-10.64-2.063-3.185-1.448-5.971-3.402-8.36-5.863-2.389-2.46-4.27-5.32-5.646-8.577-1.303-3.33-1.954-6.876-1.954-10.64 0-7.672 2.533-14.078 7.6-19.217zm19 1.194c-5.067 0-9.156 1.665-12.269 4.994-3.04 3.33-4.56 7.673-4.56 13.029s1.52 9.699 4.56 13.028c3.113 3.33 7.202 4.995 12.269 4.995 5.139 0 9.229-1.665 12.269-4.995 3.04-3.401 4.56-7.744 4.56-13.028 0-5.284-1.52-9.59-4.56-12.92-3.04-3.402-7.13-5.103-12.269-5.103z" fill="#A7E0F8"/><path d="M133.138 57.32A3 3 0 0 1 136.06 55h13.88a3 3 0 0 1 2.922 2.32l6.282 27a3 3 0 0 1-2.922 3.68h-26.444a3 3 0 0 1-2.922-3.68l6.282-27z" fill="#A7E0F8"/><path d="M136.351 57.529a2.998 2.998 0 0 1 2.923-2.329h7.452c1.398 0 2.611.966 2.923 2.329l5.508 24a3 3 0 0 1-2.923 3.671h-18.468a3 3 0 0 1-2.923-3.671l5.508-24z" fill="#87D0EF"/><path d="M125.72 17.008C130.2 12.336 135.8 10 142.52 10c3.264 0 6.304.64 9.12 1.92 2.88 1.216 5.376 2.912 7.488 5.088 2.176 2.176 3.872 4.736 5.088 7.68 1.216 2.88 1.824 5.984 1.824 9.312 0 3.328-.608 6.464-1.824 9.408-1.152 2.88-2.784 5.408-4.896 7.584-2.112 2.176-4.608 3.904-7.488 5.184-2.88 1.216-5.984 1.824-9.312 1.824-3.392 0-6.528-.608-9.408-1.824a24.094 24.094 0 0 1-7.392-5.184c-2.112-2.176-3.776-4.704-4.992-7.584C119.576 40.464 119 37.328 119 34c0-6.784 2.24-12.448 6.72-16.992zm16.8 1.056c-4.48 0-8.096 1.472-10.848 4.416-2.688 2.944-4.032 6.784-4.032 11.52s1.344 8.576 4.032 11.52c2.752 2.944 6.368 4.416 10.848 4.416 4.544 0 8.16-1.472 10.848-4.416 2.688-3.008 4.032-6.848 4.032-11.52s-1.344-8.48-4.032-11.424c-2.688-3.008-6.304-4.512-10.848-4.512zM96.315 48.96V3a3 3 0 0 1 3-3h2.64a3 3 0 0 1 3 3v45.96c0 2.304.256 4.192.768 5.664.576 1.408 1.44 2.432 2.592 3.072 1.152.576 2.272.96 3.36 1.152.395.07.836.127 1.323.171 1.65.15 2.997 1.46 2.997 3.117V64.2c0 1.657-1.346 3.013-3 2.912-5.606-.342-9.694-1.689-12.264-4.04-2.944-2.752-4.416-7.456-4.416-14.112zM43.72 17.008C48.2 12.336 53.8 10 60.52 10c3.264 0 6.304.64 9.12 1.92 2.88 1.216 5.376 2.912 7.488 5.088 2.176 2.176 3.872 4.736 5.088 7.68 1.216 2.88 1.824 5.984 1.824 9.312 0 3.328-.608 6.464-1.824 9.408-1.152 2.88-2.784 5.408-4.896 7.584-2.112 2.176-4.608 3.904-7.488 5.184C66.952 57.392 63.848 58 60.52 58c-3.392 0-6.528-.608-9.408-1.824a24.094 24.094 0 0 1-7.392-5.184c-2.112-2.176-3.776-4.704-4.992-7.584C37.576 40.464 37 37.328 37 34c0-6.784 2.24-12.448 6.72-16.992zm16.8 1.056c-4.48 0-8.096 1.472-10.848 4.416-2.688 2.944-4.032 6.784-4.032 11.52s1.344 8.576 4.032 11.52c2.752 2.944 6.368 4.416 10.848 4.416 4.544 0 8.16-1.472 10.848-4.416C74.056 42.512 75.4 38.672 75.4 34s-1.344-8.48-4.032-11.424c-2.688-3.008-6.304-4.512-10.848-4.512z" fill="#179DD7"/><path d="M3 53.08a3 3 0 0 1-3-3V26.872c0-7.36 1.376-12.448 4.128-15.264C5.472 10.2 7.104 9.144 9.024 8.44c1.92-.704 3.584-1.12 4.992-1.248C15.488 7.064 17.472 7 19.968 7h5.448a3 3 0 0 1 3 3v2.064a3 3 0 0 1-3 3H18.24c-1.28 0-2.272.032-2.976.096-.704.064-1.536.288-2.496.672-.96.384-1.792.992-2.496 1.824-1.216 1.536-1.824 4.608-1.824 9.216V50.08a3 3 0 0 1-3 3H3z" fill="#A7E0F8"/><path d="M5 55.08a3 3 0 0 1-3-3V28.872c0-7.36 1.376-12.448 4.128-15.264 1.344-1.408 2.976-2.464 4.896-3.168 1.92-.704 3.584-1.12 4.992-1.248C17.488 9.064 19.472 9 21.968 9h5.448a3 3 0 0 1 3 3v2.064a3 3 0 0 1-3 3H20.24c-1.28 0-2.272.032-2.976.096-.704.064-1.536.288-2.496.672-.96.384-1.792.992-2.496 1.824-1.216 1.536-1.824 4.608-1.824 9.216V52.08a3 3 0 0 1-3 3H5z" fill="#87D0EF"/><path d="M7 57.08a3 3 0 0 1-3-3V30.872c0-7.36 1.376-12.448 4.128-15.264 1.344-1.408 2.976-2.464 4.896-3.168 1.92-.704 3.584-1.12 4.992-1.248 1.472-.128 3.456-.192 5.952-.192h5.448a3 3 0 0 1 3 3v2.064a3 3 0 0 1-3 3H22.24c-1.28 0-2.272.032-2.976.096-.704.064-1.536.288-2.496.672-.96.384-1.792.992-2.496 1.824-1.216 1.536-1.824 4.608-1.824 9.216V54.08a3 3 0 0 1-3 3H7z" fill="#179DD7"/></svg>