<?xml version="1.0" encoding="UTF-8"?>
<svg width="99px" height="27px" viewBox="0 0 99 27" version="1.1" xmlns="http://www.w3.org/2000/svg" xmlns:xlink="http://www.w3.org/1999/xlink">
    <!-- Generator: Sketch 48.2 (47327) - http://www.bohemiancoding.com/sketch -->
    <title>Page 1</title>
    <desc>Created with Sketch.</desc>
    <defs></defs>
    <g id="header" stroke="none" stroke-width="1" fill="none" fill-rule="evenodd" transform="translate(-38.000000, -2.000000)">
        <g fill="#607170" id="Page-1">
            <g transform="translate(38.000000, 2.000000)">
                <path d="M9.28383913,22.2151137 C8.37551192,22.2151137 6.63341384,21.9111681 5.98025832,21.2872269 C5.33550352,20.6723139 5.00892576,19.9149576 5.00892576,19.0362238 L5.00892576,13.3294695 L8.95306101,13.3294695 C9.34894466,13.3294695 9.66817179,13.0235176 9.66817179,12.6453411 L9.66817179,9.22871155 C9.66817179,8.850535 9.34894466,8.54458315 8.95306101,8.54458315 L5.00892576,8.54458315 L5.00892576,0.684128399 C5.00892576,0.30595185 4.68864854,0 4.29276489,0 L0.716160874,0 C0.320277224,0 0,0.30595185 0,0.684128399 L0,19.0362238 C0,21.2420865 0.816969442,23.1419973 2.42780636,24.6807847 C4.03864328,26.219572 6.99779481,27 9.28383913,27 C9.67867269,27 10,26.6940481 10,26.3158716 L10,22.8992421 C10,22.5210655 9.67867269,22.2151137 9.28383913,22.2151137" id="Fill-1"></path>
                <path d="M20.9995108,22.3331884 C19.8117084,22.3331884 18.7814318,21.9056419 17.9380334,21.061311 C17.094635,20.2179585 16.6660869,19.1877378 16.6660869,17.9990216 C16.6660869,16.8112838 17.094635,15.7820415 17.9380334,14.9377106 C18.7814318,14.0943581 19.8117084,13.6668116 20.9995108,13.6668116 C22.1882916,13.6668116 23.2185682,14.0943581 24.0619666,14.9377106 C24.905365,15.7820415 25.3339131,16.8112838 25.3339131,17.9990216 C25.3339131,19.1877378 24.905365,20.2179585 24.0619666,21.061311 C23.2185682,21.9056419 22.1882916,22.3331884 20.9995108,22.3331884 M29.3336957,9 L25.999239,9 C25.6313529,9 25.3339131,9.298402 25.3339131,9.66724644 L25.3339131,10.116317 C23.9924988,9.37471464 22.5385661,9 20.9995108,9 C18.5162798,9 16.3725607,9.88346559 14.6280372,11.6288727 C12.8835136,13.3733014 12,15.5159256 12,17.9990216 C12,20.483096 12.8835136,22.6266986 14.6280372,24.3711273 C16.3725607,26.1145777 18.5162798,27 20.9995108,27 C22.7949122,27 24.4484427,26.5069029 25.9248791,25.5334275 L27.1948687,26.8043266 C27.3201065,26.9295576 27.4903517,27 27.6664674,27 L29.3336957,27 C29.7015818,27 30,26.701598 30,26.3327536 L30,9.66724644 C30,9.298402 29.7015818,9 29.3336957,9" id="Fill-4"></path>
                <path d="M43,12.9995652 L43,9.66724644 C43,9.298402 42.6903147,9 42.3097865,9 C40.4820362,9 38.771683,9.49407544 37.2192086,10.4685292 L35.9015282,9.19469508 C35.7719866,9.06946407 35.5969031,9 35.4137233,9 L33.6902135,9 C33.3096853,9 33,9.298402 33,9.66724644 L33,26.3327536 C33,26.701598 33.3096853,27 33.6902135,27 L37.1382451,27 C37.5187734,27 37.8274466,26.701598 37.8274466,26.3327536 L37.8274466,17.9990216 C37.8274466,16.8112838 38.2697095,15.7820415 39.1420909,14.9377106 C40.0154843,14.0943581 41.0811659,13.6668116 42.3097865,13.6668116 C42.6903147,13.6668116 43,13.3684096 43,12.9995652" id="Fill-7"></path>
                <path d="M56.0619666,21.0619666 C55.2185682,21.905365 54.1882916,22.3339131 52.9995108,22.3339131 C51.8117084,22.3339131 50.7824102,21.905365 49.9380334,21.0619666 C49.094635,20.2185682 48.6660869,19.1882916 48.6660869,17.9995108 C48.6660869,16.8117084 49.094635,15.7824102 49.9380334,14.9380334 C50.7824102,14.094635 51.8117084,13.6660869 52.9995108,13.6660869 C54.1882916,13.6660869 55.2185682,14.094635 56.0619666,14.9380334 C56.905365,15.7824102 57.3339131,16.8117084 57.3339131,17.9995108 C57.3339131,19.1882916 56.905365,20.2185682 56.0619666,21.0619666 M52.9995108,9 C50.5162798,9 48.3725607,9.88351362 46.6280372,11.6280372 C44.8835136,13.3735392 44,15.5162798 44,17.9995108 C44,20.4837202 44.8835136,22.6274393 46.6280372,24.3719628 C48.3725607,26.115508 50.5162798,27 52.9995108,27 C55.4837202,27 57.6274393,26.115508 59.3719628,24.3719628 C61.115508,22.6274393 62,20.4837202 62,17.9995108 C62,15.5162798 61.115508,13.3735392 59.3719628,11.6280372 C57.6274393,9.88351362 55.4837202,9 52.9995108,9" id="Fill-10"></path>
                <path d="M74.9060003,17.2593349 L81.0178233,9.65238714 C81.1827875,9.44673974 81.2133364,9.16685863 81.0982688,8.93011332 C80.9821828,8.69437117 80.739828,8.54389745 80.4740523,8.54389745 L76.0322376,8.54389745 C75.8204317,8.54389745 75.6208453,8.63919747 75.4884666,8.80271224 L69.8572802,15.8087683 L69.8572802,0.684153818 C69.8572802,0.305963218 69.5466994,0 69.1638194,0 L65.6944791,0 C65.3105808,0 65,0.305963218 65,0.684153818 L65,26.3158462 C65,26.6940368 65.3105808,27 65.6944791,27 L69.1638194,27 C69.5466994,27 69.8572802,26.6940368 69.8572802,26.3158462 L69.8572802,23.5471299 L71.8012105,21.1275125 L76.3224524,26.7411852 C76.4538128,26.9047 76.6544175,27 76.8662234,27 L81.3060015,27 C81.5727955,27 81.8151504,26.8505294 81.930218,26.6137841 C82.0473223,26.378042 82.0147367,26.0981609 81.8497725,25.8915103 L74.9060003,17.2593349 Z" id="Fill-12"></path>
                <path d="M93.0619666,21.0619666 C92.2185682,21.905365 91.1882916,22.3339131 90.0004892,22.3339131 C88.8117084,22.3339131 87.7824102,21.905365 86.9380334,21.0619666 C86.094635,20.2185682 85.6660869,19.1882916 85.6660869,17.9995108 C85.6660869,16.8117084 86.094635,15.7824102 86.9380334,14.9380334 C87.7824102,14.094635 88.8117084,13.6660869 90.0004892,13.6660869 C91.1882916,13.6660869 92.2185682,14.094635 93.0619666,14.9380334 C93.905365,15.7824102 94.3339131,16.8117084 94.3339131,17.9995108 C94.3339131,19.1882916 93.905365,20.2185682 93.0619666,21.0619666 M96.3719628,11.6280372 C94.6284177,9.88351362 92.4837202,9 90.0004892,9 C87.5162798,9 85.3735392,9.88351362 83.6280372,11.6280372 C81.884492,13.3735392 81,15.5162798 81,17.9995108 C81,20.4837202 81.884492,22.6274393 83.6280372,24.3719628 C85.3735392,26.115508 87.5162798,27 90.0004892,27 C92.4837202,27 94.6284177,26.115508 96.3719628,24.3719628 C98.1164864,22.6274393 99,20.4837202 99,17.9995108 C99,15.5162798 98.1164864,13.3735392 96.3719628,11.6280372" id="Fill-15"></path>
            </g>
        </g>
    </g>
</svg>