<?xml version="1.0" encoding="UTF-8"?>
<svg width="53px" height="53px" viewBox="0 0 53 53" version="1.1" xmlns="http://www.w3.org/2000/svg" xmlns:xlink="http://www.w3.org/1999/xlink">
    <!-- Generator: Sketch 48.2 (47327) - http://www.bohemiancoding.com/sketch -->
    <title>Page 1</title>
    <desc>Created with Sketch.</desc>
    <defs>
        <polygon id="path-1" points="0.7772 0.3906 1.531 0.3906 1.531 1 0.7772 1"></polygon>
        <polygon id="path-3" points="0 0.4658 26.2657 0.4658 26.2657 26.7318 0 26.7318"></polygon>
        <polygon id="path-5" points="0 0.4658 26.2657 0.4658 26.2657 26.7318 0 26.7318"></polygon>
        <polygon id="path-7" points="0 0.4658 26.2657 0.4658 26.2657 26.7318 0 26.7318"></polygon>
        <polygon id="path-9" points="0.7878 0.376 1.531 0.376 1.531 1 0.7878 1"></polygon>
        <polygon id="path-11" points="0.8614 0.4001 2.7774 0.4001 2.7774 1 0.8614 1"></polygon>
        <polygon id="path-13" points="0.2641 0.43 2.8741 0.43 2.8741 1.4296 0.2641 1.4296"></polygon>
    </defs>
    <g id="footer" stroke="none" stroke-width="1" fill="none" fill-rule="evenodd" transform="translate(0.000000, -2.000000)">
        <g id="Page-1">
            <g transform="translate(0.000000, 1.000000)">
                <path d="M50.8741,1.128 C51.0051,1.173 51.1031,1.22 51.1511,1.249 C51.4631,1.437 51.7131,1.686 51.7131,1.686 C51.7131,1.686 49.9321,3.635 49.5141,4.053 L44.8381,8.73 C49.5911,13.482 52.5301,20.049 52.5301,27.302 L52.5301,3.334 C52.5301,2.287 51.8311,1.405 50.8741,1.128" id="Fill-1" fill="#00E0E0"></path>
                <g id="Group-5" transform="translate(51.000000, 52.570400)">
                    <mask id="mask-2" fill="white">
                        <use xlink:href="#path-1"></use>
                    </mask>
                    <g id="Clip-4"></g>
                    <path d="M0.7882,0.3906 C0.7842,0.3936 0.7812,0.3976 0.7772,0.4006 C0.7802,0.3976 0.7842,0.3936 0.7882,0.3906" id="Fill-3" fill="#49EFFC" mask="url(#mask-2)"></path>
                </g>
                <path d="M44.836,45.8761 L51.856,52.8931 C51.856,52.8931 51.837,52.9131 51.803,52.9461 C52.25,52.5271 52.53,51.9321 52.53,51.2701 L52.53,27.3021 C52.53,34.5561 49.59,41.1231 44.836,45.8761" id="Fill-6" fill="#49EFFC"></path>
                <g id="Group-10" transform="translate(0.000000, 0.570400)">
                    <mask id="mask-4" fill="white">
                        <use xlink:href="#path-3"></use>
                    </mask>
                    <g id="Clip-9"></g>
                    <path d="M26.2657,0.4658 L2.2977,0.4658 C1.0287,0.4658 -0.0003,1.4938 -0.0003,2.7638 L-0.0003,26.7318 C-0.0003,12.2258 11.7587,0.4658 26.2657,0.4658" id="Fill-8" fill="#AFF763" mask="url(#mask-4)"></path>
                </g>
                <polygon id="Fill-11" fill="#9CD819" points="0.0001 27.3018 26.2661 53.5678 26.2661 27.3018"></polygon>
                <path d="M26.2657,27.3018 L52.5307,27.3018 C52.5307,20.0488 49.5907,13.4828 44.8377,8.7298 L26.2657,27.3018 Z" id="Fill-13" fill="#0FD37A"></path>
                <g id="Group-17" transform="translate(0.000000, 0.570400)">
                    <mask id="mask-6" fill="white">
                        <use xlink:href="#path-5"></use>
                    </mask>
                    <g id="Clip-16"></g>
                    <path d="M26.2657,0.4658 C11.7587,0.4658 -0.0003,12.2258 -0.0003,26.7318 L26.2657,26.7318 L26.2657,0.4658 Z" id="Fill-15" fill="#AFF763" mask="url(#mask-6)"></path>
                </g>
                <g id="Group-20" transform="translate(0.000000, 0.570400)">
                    <mask id="mask-8" fill="white">
                        <use xlink:href="#path-7"></use>
                    </mask>
                    <g id="Clip-19"></g>
                    <path d="M26.2657,0.4658 C11.7587,0.4658 -0.0003,12.2258 -0.0003,26.7318 L26.2657,26.7318 L26.2657,0.4658 Z" id="Fill-18" fill="#4FE247" mask="url(#mask-8)"></path>
                </g>
                <path d="M26.3106,27.4151 L39.4026,40.4461 L44.8356,45.8761 C49.5896,41.1231 52.5306,34.5561 52.5306,27.3021 L26.2656,27.3021 L26.3106,27.4151 Z" id="Fill-21" fill="#00B595"></path>
                <g id="Group-25" transform="translate(51.000000, 52.570400)">
                    <mask id="mask-10" fill="white">
                        <use xlink:href="#path-9"></use>
                    </mask>
                    <g id="Clip-24"></g>
                    <path d="M0.8028,0.376 L0.7878,0.391 L0.8028,0.376 Z" id="Fill-23" fill="#2EE5E5" mask="url(#mask-10)"></path>
                </g>
                <g id="Group-28" transform="translate(49.000000, 52.570400)">
                    <mask id="mask-12" fill="white">
                        <use xlink:href="#path-11"></use>
                    </mask>
                    <g id="Clip-27"></g>
                    <path d="M0.8614,0.9971 C1.0644,0.9971 1.2584,1.0091 1.4654,0.9851 C1.7044,0.9591 1.7504,0.9551 2.0614,0.8441 C2.4034,0.7221 2.6564,0.5141 2.7774,0.4001 C2.3694,0.7701 1.8274,0.9971 1.2334,0.9971 L0.8614,0.9971 Z" id="Fill-26" fill="#2EE5E5" mask="url(#mask-12)"></path>
                </g>
                <path d="M51.8555,52.8927 L44.8355,45.8757 C40.0835,50.6277 33.5175,53.5677 26.2655,53.5677 L49.8615,53.5677 L50.2335,53.5677 C50.8275,53.5677 51.3695,53.3407 51.7775,52.9707 C51.7815,52.9677 51.7845,52.9637 51.7885,52.9607 L51.8025,52.9467 C51.8365,52.9137 51.8555,52.8927 51.8555,52.8927" id="Fill-29" fill="#49EFFC"></path>
                <path d="M51.8555,52.8927 L44.8355,45.8757 C40.0835,50.6277 33.5175,53.5677 26.2655,53.5677 L49.8615,53.5677 L50.2335,53.5677 C50.8275,53.5677 51.3695,53.3407 51.7775,52.9707 C51.7815,52.9677 51.7845,52.9637 51.7885,52.9607 L51.8025,52.9467 C51.8365,52.9137 51.8555,52.8927 51.8555,52.8927" id="Fill-31" fill="#2EE5E5"></path>
                <path d="M39.4024,40.4464 L26.3104,27.4154 L26.2654,27.3014 L26.2654,53.5674 C33.5174,53.5674 40.0834,50.6284 44.8364,45.8764 L39.4024,40.4464 Z" id="Fill-33" fill="#00B595"></path>
                <path d="M39.4024,40.4464 L26.3104,27.4154 L26.2654,27.3014 L26.2654,53.5674 C33.5174,53.5674 40.0834,50.6284 44.8364,45.8764 L39.4024,40.4464 Z" id="Fill-35" fill="#02A386"></path>
                <g id="Group-39" transform="translate(48.000000, 0.570400)">
                    <mask id="mask-14" fill="white">
                        <use xlink:href="#path-13"></use>
                    </mask>
                    <g id="Clip-38"></g>
                    <path d="M2.8741,0.5576 C2.6871,0.4916 2.4311,0.4296 2.1541,0.4296 C1.4051,0.4296 0.7581,0.4656 0.2641,0.4656 L2.2331,0.4656 C2.4561,0.4656 2.6711,0.4976 2.8741,0.5576" id="Fill-37" fill="#15E573" mask="url(#mask-14)"></path>
                </g>
                <path d="M44.838,8.7296 L49.514,4.0526 C49.932,3.6346 51.713,1.6856 51.713,1.6856 C51.713,1.6856 51.463,1.4366 51.151,1.2496 C51.103,1.2196 51.005,1.1726 50.874,1.1276 C50.671,1.0686 50.456,1.0366 50.234,1.0366 L48.264,1.0366 L26.266,1.0366 C33.519,1.0366 40.085,3.9756 44.838,8.7296" id="Fill-40" fill="#00E0E0"></path>
                <path d="M44.838,8.7296 L49.514,4.0526 C49.932,3.6346 51.713,1.6856 51.713,1.6856 C51.713,1.6856 51.463,1.4366 51.151,1.2496 C51.103,1.2196 51.005,1.1726 50.874,1.1276 C50.671,1.0686 50.456,1.0366 50.234,1.0366 L48.264,1.0366 L26.266,1.0366 C33.519,1.0366 40.085,3.9756 44.838,8.7296" id="Fill-42" fill="#15E573"></path>
                <path d="M44.838,8.7296 C40.085,3.9756 33.519,1.0366 26.266,1.0366 L26.266,27.3016 L44.838,8.7296 Z" id="Fill-44" fill="#0FD37A"></path>
                <path d="M44.838,8.7296 C40.085,3.9756 33.519,1.0366 26.266,1.0366 L26.266,27.3016 L44.838,8.7296 Z" id="Fill-46" fill="#05C654"></path>
                <path d="M0.0001,51.7999 C0.0001,52.7759 0.7911,53.5679 1.7681,53.5679 L26.2661,53.5679 L0.0001,27.3019 L0.0001,51.7999 Z" id="Fill-48" fill="#C5ED35"></path>
            </g>
        </g>
    </g>
</svg>